<svg width="25" height="25" viewBox="0 0 25 25" fill="none" xmlns="http://www.w3.org/2000/svg">
<path d="M25 12.5C25 5.59644 19.4036 0 12.5 0C5.59644 0 0 5.59644 0 12.5C0 19.4036 5.59644 25 12.5 25C19.4036 25 25 19.4036 25 12.5Z" fill="rgb(2, 84, 146)"/>
<path d="M16.6667 5.55557H14.5834C13.6625 5.55557 12.7793 5.92139 12.1282 6.57256C11.477 7.22373 11.1112 8.1069 11.1112 9.02779V11.1111H9.02783V13.8889H11.1112V19.4445H13.8889V13.8889H15.9723L16.6667 11.1111H13.8889V9.02779C13.8889 8.84362 13.9621 8.66698 14.0923 8.53675C14.2226 8.40651 14.3992 8.33335 14.5834 8.33335H16.6667V5.55557Z" fill="black"/>
</svg>
