<svg width="85" height="52" viewBox="0 0 85 52" fill="none" xmlns="http://www.w3.org/2000/svg">
<path d="M21.4436 18.6596L11.3436 18.4885L19.0068 1.42725" stroke="white" stroke-width="2.5" stroke-linejoin="round"/>
<path d="M20.9597 18.4099H11.1724L18.8644 1" stroke="rgb(2, 84, 146)" stroke-width="2.5" stroke-linejoin="round"/>
<path d="M55.8746 18.4885H62.7221L69.5744 3.56396" stroke="white" stroke-width="2.5" stroke-linejoin="round"/>
<path d="M55.3643 18.4101H62.5508L69.4319 3.2793" stroke="rgb(2, 84, 146)" stroke-width="2.5" stroke-linejoin="round"/>
<circle cx="28.4718" cy="19.0076" r="11.1941" fill="white"/>
<circle cx="48.4684" cy="19.0062" r="11.1941" fill="white"/>
<circle cx="28.3009" cy="19.1775" r="8.8015" fill="white"/>
<circle cx="48.5532" cy="19.0911" r="8.88695" fill="white"/>
<path d="M37.4814 26.3437L35.9422 23.2241L35.8238 23.1185C35.8238 23.1185 35.4396 19.9017 36.9906 19.0015C37.109 20.4795 37.7064 22.7675 38.8111 24.6538C38.5125 25.3847 37.4814 26.3437 37.4814 26.3437Z" fill="white"/>
<path d="M38.4698 13.8794L38.9826 12.9395L40.2643 15.6739L40.6061 15.3321L40.8625 19.092C40.8625 19.092 39.8131 18.9362 39.6422 18.9211C39.7277 15.7594 38.4698 13.8794 38.4698 13.8794Z" fill="white"/>
<circle cx="28.4718" cy="18.6648" r="11.1941" fill="rgb(2, 84, 146)"/>
<circle cx="48.4684" cy="18.6648" r="11.1941" fill="rgb(2, 84, 146)"/>
<circle cx="28.3009" cy="18.8357" r="8.8015" fill="white"/>
<circle cx="48.5532" cy="18.7493" r="8.88695" fill="white"/>
<path d="M37.4814 26.0024L35.9422 22.8827L35.8238 22.7772C35.8238 22.7772 35.4396 19.5604 36.9906 18.6602C37.109 20.1382 37.7064 22.4262 38.8111 24.3125C38.5125 25.0434 37.4814 26.0024 37.4814 26.0024Z" fill="white"/>
<path d="M38.4698 13.5376L38.9826 12.5977L40.2643 15.3321L40.6061 14.9903L40.8625 18.7502C40.8625 18.7502 39.8131 18.5944 39.6422 18.5793C39.7277 15.4176 38.4698 13.5376 38.4698 13.5376Z" fill="white"/>
<path d="M37.7064 21.9118C37.5352 21.227 37.364 17.4609 36.5081 15.749L35.481 21.5694L37.7064 21.9118Z" fill="white"/>
<path d="M1.54297 43.3672C1.54297 43.3607 1.53971 43.3542 1.5332 43.3477C1.5332 43.3411 1.5332 43.3346 1.5332 43.3281C1.5332 43.2174 1.5918 43.1621 1.70898 43.1621C1.76758 43.1621 1.83268 43.1914 1.9043 43.25C2.25586 43.582 2.64648 43.8457 3.07617 44.041C3.50586 44.2363 3.97461 44.334 4.48242 44.334C4.61914 44.334 4.77539 44.321 4.95117 44.2949C5.12695 44.2624 5.29297 44.2135 5.44922 44.1484C5.60547 44.0768 5.73568 43.9857 5.83984 43.875C5.95052 43.7643 6.00586 43.6243 6.00586 43.4551C6.00586 43.2663 5.96029 43.097 5.86914 42.9473C5.77799 42.7975 5.65755 42.6706 5.50781 42.5664C5.44922 42.5273 5.36133 42.4622 5.24414 42.3711C5.12695 42.2799 4.99349 42.1758 4.84375 42.0586C4.69401 41.9414 4.53776 41.8177 4.375 41.6875C4.21224 41.5508 4.05599 41.4238 3.90625 41.3066C3.76302 41.1829 3.63281 41.0723 3.51562 40.9746C3.39844 40.877 3.31055 40.8021 3.25195 40.75C2.86784 40.4635 2.56185 40.1738 2.33398 39.8809C2.11263 39.5879 1.94336 39.2819 1.82617 38.9629C1.70898 38.6439 1.63411 38.3151 1.60156 37.9766C1.56901 37.6315 1.55273 37.2669 1.55273 36.8828C1.55273 36.3099 1.68945 35.7663 1.96289 35.252C2.23633 34.7376 2.62044 34.2917 3.11523 33.9141C3.61654 33.5299 4.21549 33.2272 4.91211 33.0059C5.60872 32.778 6.38346 32.6641 7.23633 32.6641C7.34049 32.6641 7.49674 32.6771 7.70508 32.7031C7.91341 32.7227 8.14128 32.7585 8.38867 32.8105C8.64258 32.8626 8.89974 32.9342 9.16016 33.0254C9.42057 33.1165 9.6582 33.2337 9.87305 33.377C9.94466 33.429 10 33.4811 10.0391 33.5332C10.0846 33.5853 10.1139 33.6667 10.127 33.7773C10.1595 34.3047 10.1855 34.8255 10.2051 35.3398C10.2246 35.8477 10.2507 36.388 10.2832 36.9609C10.2832 37.0716 10.2604 37.1465 10.2148 37.1855C10.1693 37.2181 10.1107 37.2344 10.0391 37.2344C9.96745 37.2344 9.91211 37.2148 9.87305 37.1758C9.68424 36.987 9.48893 36.8014 9.28711 36.6191C9.08529 36.4368 8.8737 36.2773 8.65234 36.1406C8.43099 35.9974 8.19336 35.8835 7.93945 35.7988C7.69206 35.7142 7.42188 35.6719 7.12891 35.6719C6.95312 35.6719 6.77734 35.6882 6.60156 35.7207C6.42578 35.7467 6.26628 35.7988 6.12305 35.877C5.97982 35.9551 5.86263 36.0625 5.77148 36.1992C5.68685 36.3359 5.64453 36.5085 5.64453 36.7168C5.64453 36.9382 5.67057 37.1302 5.72266 37.293C5.78125 37.4557 5.92122 37.6087 6.14258 37.752L8.48633 39.3438C8.91602 39.6497 9.26432 39.9557 9.53125 40.2617C9.79818 40.5612 10.0065 40.8607 10.1562 41.1602C10.306 41.4596 10.4069 41.7559 10.459 42.0488C10.5176 42.3353 10.5469 42.6185 10.5469 42.8984C10.5469 43.3542 10.472 43.7839 10.3223 44.1875C10.1725 44.5911 9.96745 44.9655 9.70703 45.3105C9.44661 45.6491 9.14062 45.9551 8.78906 46.2285C8.44401 46.4954 8.07292 46.7266 7.67578 46.9219C7.27865 47.1107 6.86523 47.2539 6.43555 47.3516C6.01237 47.4557 5.5957 47.5078 5.18555 47.5078C4.86654 47.5078 4.55078 47.5013 4.23828 47.4883C3.93229 47.4818 3.63281 47.4557 3.33984 47.4102C3.04688 47.3711 2.76367 47.306 2.49023 47.2148C2.2168 47.1302 1.95638 47.0098 1.70898 46.8535L1.54297 43.3672ZM15.1426 40.1836C15.1035 40.8086 15.0677 41.3164 15.0352 41.707C15.0091 42.0977 14.9863 42.4167 14.9668 42.6641C14.9473 42.9049 14.931 43.097 14.918 43.2402C14.9049 43.377 14.8952 43.5072 14.8887 43.6309C15.0384 44.0215 15.2598 44.3405 15.5527 44.5879C15.8457 44.8288 16.1973 44.9492 16.6074 44.9492C16.9655 44.9492 17.278 44.8385 17.5449 44.6172C17.8184 44.3893 18.043 44.0964 18.2188 43.7383C18.401 43.3802 18.5378 42.9798 18.6289 42.5371C18.7201 42.0944 18.7656 41.6549 18.7656 41.2188C18.7656 40.8607 18.7331 40.5286 18.668 40.2227C18.6094 39.9167 18.5182 39.653 18.3945 39.4316C18.2708 39.2038 18.1146 39.028 17.9258 38.9043C17.7435 38.7741 17.5254 38.709 17.2715 38.709C17.0632 38.709 16.8548 38.7513 16.6465 38.8359C16.4447 38.9141 16.2493 39.0182 16.0605 39.1484C15.8717 39.2721 15.6992 39.4154 15.543 39.5781C15.3932 39.7344 15.2695 39.8874 15.1719 40.0371L15.1426 40.1836ZM15.3379 37.3223C15.8848 36.9512 16.4577 36.6549 17.0566 36.4336C17.6556 36.2122 18.2806 36.1016 18.9316 36.1016C19.5436 36.1016 20.071 36.2285 20.5137 36.4824C20.9629 36.7298 21.334 37.0684 21.627 37.498C21.9199 37.9212 22.1348 38.4095 22.2715 38.9629C22.4147 39.5163 22.4863 40.0957 22.4863 40.7012C22.4863 41.2285 22.4342 41.7624 22.3301 42.3027C22.2259 42.8431 22.0729 43.3672 21.8711 43.875C21.6693 44.3763 21.4186 44.8483 21.1191 45.291C20.8197 45.7337 20.4746 46.1211 20.084 46.4531C19.6999 46.7786 19.2702 47.0358 18.7949 47.2246C18.3197 47.4134 17.8053 47.5078 17.252 47.5078C16.7637 47.5078 16.2949 47.4102 15.8457 47.2148C15.403 47.0195 14.9863 46.7656 14.5957 46.4531C14.5957 46.4857 14.5859 46.6061 14.5664 46.8145C14.5534 47.0163 14.5339 47.2637 14.5078 47.5566C14.4818 47.8496 14.4525 48.1621 14.4199 48.4941C14.3874 48.8327 14.3581 49.1484 14.332 49.4414C14.306 49.7344 14.2832 49.9818 14.2637 50.1836C14.2507 50.3919 14.2441 50.5124 14.2441 50.5449C14.2441 50.597 14.2441 50.6393 14.2441 50.6719C14.2507 50.7109 14.2539 50.7467 14.2539 50.7793C14.2539 50.8314 14.2279 50.8737 14.1758 50.9062C14.1302 50.9453 14.0228 50.9876 13.8535 51.0332L11.2852 51.6875C11.2135 51.707 11.1191 51.7363 11.002 51.7754C10.8848 51.821 10.7708 51.8438 10.6602 51.8438C10.569 51.8438 10.4876 51.821 10.416 51.7754C10.3509 51.7298 10.3184 51.6452 10.3184 51.5215L11.5098 37.2246C11.5293 37.0098 11.5521 36.8633 11.5781 36.7852C11.6107 36.7005 11.6855 36.6452 11.8027 36.6191C12.3952 36.502 13.0039 36.3848 13.6289 36.2676C14.2539 36.1439 14.8626 35.9876 15.4551 35.7988C15.5072 35.7988 15.5365 35.8086 15.543 35.8281C15.556 35.8411 15.5625 35.8639 15.5625 35.8965C15.5625 35.9095 15.5592 35.929 15.5527 35.9551C15.5527 35.9811 15.543 36.0397 15.5234 36.1309C15.5104 36.222 15.4876 36.362 15.4551 36.5508C15.429 36.7331 15.39 36.9902 15.3379 37.3223ZM28.5469 36.1016C29.1654 36.1016 29.7253 36.2188 30.2266 36.4531C30.7344 36.681 31.1673 36.9805 31.5254 37.3516C31.89 37.7161 32.1699 38.1263 32.3652 38.582C32.5605 39.0378 32.6582 39.4935 32.6582 39.9492C32.6582 40.3529 32.5345 40.7598 32.2871 41.1699C32.0397 41.5736 31.6914 41.9382 31.2422 42.2637C30.7995 42.5892 30.2656 42.8529 29.6406 43.0547C29.0156 43.2565 28.3288 43.3574 27.5801 43.3574C27.1895 43.3574 26.7793 43.3184 26.3496 43.2402C26.3757 43.5202 26.457 43.7611 26.5938 43.9629C26.7305 44.1647 26.903 44.3307 27.1113 44.4609C27.3197 44.5911 27.554 44.6888 27.8145 44.7539C28.0814 44.8125 28.3548 44.8418 28.6348 44.8418C28.9473 44.8418 29.2467 44.8158 29.5332 44.7637C29.8262 44.7051 30.1061 44.6302 30.373 44.5391C30.64 44.4479 30.8971 44.347 31.1445 44.2363C31.3919 44.1257 31.6263 44.015 31.8477 43.9043C31.9062 43.8913 31.9551 43.8815 31.9941 43.875C32.0397 43.862 32.082 43.8555 32.1211 43.8555C32.1211 43.8555 32.1178 43.9076 32.1113 44.0117C32.1113 44.1159 32.1113 44.2624 32.1113 44.4512C32.1113 44.64 32.1081 44.8678 32.1016 45.1348C32.1016 45.4017 32.0983 45.6979 32.0918 46.0234C32.1113 46.056 32.1243 46.0885 32.1309 46.1211C32.1374 46.1536 32.1406 46.1797 32.1406 46.1992C32.1406 46.2773 32.069 46.362 31.9258 46.4531C31.7826 46.5443 31.5938 46.6387 31.3594 46.7363C31.1315 46.834 30.8678 46.9284 30.5684 47.0195C30.2754 47.1107 29.9759 47.1921 29.6699 47.2637C29.3639 47.3418 29.0677 47.4004 28.7812 47.4395C28.4948 47.485 28.2441 47.5078 28.0293 47.5078C27.3262 47.5078 26.6426 47.3841 25.9785 47.1367C25.321 46.8958 24.735 46.5475 24.2207 46.0918C23.7129 45.6361 23.306 45.0827 23 44.4316C22.694 43.7806 22.541 43.0482 22.541 42.2344C22.541 41.3815 22.6875 40.584 22.9805 39.8418C23.2734 39.0931 23.6836 38.4421 24.2109 37.8887C24.7448 37.3353 25.3796 36.8991 26.1152 36.5801C26.8509 36.2611 27.6615 36.1016 28.5469 36.1016ZM28.4297 38.6992C28.1628 38.6992 27.9154 38.7578 27.6875 38.875C27.4661 38.9857 27.2611 39.1484 27.0723 39.3633C26.89 39.5716 26.7305 39.8255 26.5938 40.125C26.457 40.418 26.3464 40.7435 26.2617 41.1016C26.9323 40.9844 27.4889 40.8607 27.9316 40.7305C28.3743 40.6003 28.7292 40.4701 28.9961 40.3398C29.263 40.2031 29.4518 40.0697 29.5625 39.9395C29.6732 39.8027 29.7285 39.6725 29.7285 39.5488C29.7285 39.4316 29.6829 39.321 29.5918 39.2168C29.5072 39.1126 29.3997 39.0215 29.2695 38.9434C29.1393 38.8652 28.9961 38.8066 28.8398 38.7676C28.6901 38.722 28.5534 38.6992 28.4297 38.6992ZM32.6836 42.2344C32.6836 41.3815 32.8398 40.584 33.1523 39.8418C33.4714 39.0931 33.9076 38.4421 34.4609 37.8887C35.0208 37.3353 35.6784 36.8991 36.4336 36.5801C37.1953 36.2611 38.0221 36.1016 38.9141 36.1016C39.5195 36.1016 40.0371 36.1504 40.4668 36.248C40.8965 36.3457 41.248 36.4564 41.5215 36.5801C41.7949 36.6973 41.9935 36.8079 42.1172 36.9121C42.2474 37.0098 42.3125 37.0618 42.3125 37.0684C42.3125 37.1074 42.2962 37.2181 42.2637 37.4004C42.2376 37.5762 42.2051 37.7845 42.166 38.0254C42.1335 38.2598 42.1009 38.5039 42.0684 38.7578C42.0423 39.0052 42.0293 39.2201 42.0293 39.4023C42.0293 39.4349 42.0195 39.4707 42 39.5098C41.9805 39.5488 41.9284 39.5684 41.8438 39.5684C41.7656 39.5684 41.6517 39.5423 41.502 39.4902C41.3522 39.4316 41.1667 39.3698 40.9453 39.3047C40.7305 39.2396 40.4798 39.181 40.1934 39.1289C39.9134 39.0703 39.6009 39.041 39.2559 39.041C38.8262 39.041 38.4388 39.1191 38.0938 39.2754C37.7487 39.4251 37.4525 39.6367 37.2051 39.9102C36.9577 40.1771 36.7656 40.4961 36.6289 40.8672C36.4987 41.2383 36.4336 41.6387 36.4336 42.0684C36.4336 42.5176 36.502 42.9017 36.6387 43.2207C36.7819 43.5332 36.9707 43.7904 37.2051 43.9922C37.4395 44.1875 37.7096 44.3307 38.0156 44.4219C38.3216 44.513 38.6439 44.5586 38.9824 44.5586C39.373 44.5586 39.7669 44.5065 40.1641 44.4023C40.5612 44.2917 40.9355 44.1387 41.2871 43.9434C41.3001 43.9368 41.3262 43.9336 41.3652 43.9336C41.3978 43.9336 41.4206 43.9499 41.4336 43.9824C41.4531 44.015 41.4629 44.0768 41.4629 44.168C41.4629 44.3763 41.4629 44.6302 41.4629 44.9297C41.4629 45.2227 41.4596 45.5059 41.4531 45.7793C41.4531 46.0462 41.4499 46.2741 41.4434 46.4629C41.4368 46.6517 41.4303 46.7461 41.4238 46.7461C41.1895 46.9023 40.9355 47.0293 40.6621 47.127C40.3887 47.2246 40.1055 47.3027 39.8125 47.3613C39.526 47.4199 39.2363 47.459 38.9434 47.4785C38.6504 47.498 38.3672 47.5078 38.0938 47.5078C37.332 47.5078 36.6224 47.3809 35.9648 47.127C35.3073 46.873 34.7344 46.515 34.2461 46.0527C33.7643 45.5905 33.3835 45.0371 33.1035 44.3926C32.8236 43.7415 32.6836 43.0221 32.6836 42.2344ZM42.2207 44.3047C42.2207 44.2982 42.2174 44.2949 42.2109 44.2949C42.2109 44.2884 42.2109 44.2819 42.2109 44.2754C42.2109 44.1908 42.2565 44.1484 42.3477 44.1484C42.4062 44.1484 42.4583 44.1712 42.5039 44.2168C42.7643 44.4642 43.0605 44.666 43.3926 44.8223C43.7311 44.9785 44.0957 45.0566 44.4863 45.0566C44.5905 45.0566 44.7109 45.0469 44.8477 45.0273C44.9844 45.0013 45.1146 44.9622 45.2383 44.9102C45.362 44.8581 45.4629 44.7897 45.541 44.7051C45.6257 44.6139 45.668 44.5033 45.668 44.373C45.668 44.2298 45.6322 44.0996 45.5605 43.9824C45.4889 43.8587 45.3945 43.7578 45.2773 43.6797C45.2122 43.6341 45.0983 43.556 44.9355 43.4453C44.7728 43.3281 44.597 43.2044 44.4082 43.0742C44.2259 42.944 44.0501 42.8203 43.8809 42.7031C43.7181 42.5859 43.6042 42.5013 43.5391 42.4492C43.2461 42.2279 43.0117 42.0033 42.8359 41.7754C42.6667 41.5475 42.5365 41.3132 42.4453 41.0723C42.3542 40.8249 42.2956 40.5677 42.2695 40.3008C42.2435 40.0339 42.2305 39.7507 42.2305 39.4512C42.2305 38.9954 42.3509 38.5658 42.5918 38.1621C42.8327 37.7585 43.1484 37.4036 43.5391 37.0977C43.9362 36.7917 44.3854 36.5508 44.8867 36.375C45.388 36.1927 45.8991 36.1016 46.4199 36.1016C46.8496 36.1016 47.2728 36.1667 47.6895 36.2969C48.1061 36.4271 48.4935 36.6484 48.8516 36.9609C48.8841 37.3711 48.9069 37.7747 48.9199 38.1719C48.9329 38.569 48.9525 38.9857 48.9785 39.4219C48.9785 39.5065 48.959 39.5651 48.9199 39.5977C48.8809 39.6237 48.8353 39.6367 48.7832 39.6367C48.7376 39.6367 48.6986 39.6204 48.666 39.5879C48.5163 39.4447 48.3633 39.3047 48.207 39.168C48.0508 39.0247 47.8848 38.901 47.709 38.7969C47.5397 38.6862 47.3574 38.5983 47.1621 38.5332C46.9668 38.4616 46.7585 38.4258 46.5371 38.4258C46.4004 38.4258 46.2637 38.4388 46.127 38.4648C45.9902 38.4844 45.8665 38.5267 45.7559 38.5918C45.6452 38.6504 45.554 38.7318 45.4824 38.8359C45.4173 38.9401 45.3848 39.0736 45.3848 39.2363C45.3848 39.4251 45.4076 39.5879 45.4531 39.7246C45.4987 39.8613 45.6061 39.9948 45.7754 40.125L47.5918 41.3555C47.9238 41.5833 48.1908 41.8079 48.3926 42.0293C48.6009 42.2441 48.7637 42.459 48.8809 42.6738C48.998 42.8887 49.0762 43.1035 49.1152 43.3184C49.1608 43.5267 49.1836 43.735 49.1836 43.9434C49.1836 44.5293 49.0469 45.0469 48.7734 45.4961C48.5065 45.9388 48.1582 46.3099 47.7285 46.6094C47.2988 46.9023 46.8105 47.1237 46.2637 47.2734C45.7233 47.4297 45.1797 47.5078 44.6328 47.5078C44.2161 47.5078 43.8125 47.4622 43.4219 47.3711C43.0378 47.2865 42.6797 47.153 42.3477 46.9707L42.2207 44.3047Z" fill="black"/>
<path d="M57.838 47H49.838C49.8513 46.36 49.8646 45.8 49.878 45.32C49.9046 44.8267 49.9246 44.32 49.938 43.8C49.9513 43.2667 49.9646 42.66 49.978 41.98C49.9913 41.3 49.998 40.4467 49.998 39.42C49.998 38.3933 49.9913 37.3733 49.978 36.36C49.9646 35.3333 49.938 34.28 49.898 33.2L52.758 33C52.718 33.4267 52.6846 33.8667 52.658 34.32C52.6446 34.76 52.6313 35.2533 52.618 35.8C52.618 36.3333 52.6113 36.9333 52.598 37.6C52.598 38.2667 52.598 39.0267 52.598 39.88C52.598 40.9733 52.598 41.9267 52.598 42.74C52.598 43.5533 52.6046 44.32 52.618 45.04H57.838V47ZM60.5664 47.24C59.7264 47.24 59.0464 46.9533 58.5264 46.38C58.0197 45.8067 57.7664 45.06 57.7664 44.14C57.7664 43.18 58.0464 42.4133 58.6064 41.84C59.1664 41.2667 59.9131 40.98 60.8464 40.98C61.2331 40.98 61.6197 41.0333 62.0064 41.14C62.3931 41.2467 62.7397 41.4 63.0464 41.6V40.48C63.0464 39.8533 62.9264 39.4133 62.6864 39.16C62.4464 38.9067 62.0331 38.78 61.4464 38.78C61.0464 38.78 60.6197 38.8333 60.1664 38.94C59.7264 39.0333 59.3731 39.1533 59.1064 39.3L58.4864 37.38C58.6864 37.3 58.9264 37.22 59.2064 37.14C59.4864 37.06 59.7864 36.9933 60.1064 36.94C60.4264 36.8867 60.7531 36.8467 61.0864 36.82C61.4197 36.78 61.7264 36.76 62.0064 36.76C64.3531 36.76 65.5264 37.9067 65.5264 40.2C65.5264 40.4 65.5131 40.6933 65.4864 41.08C65.4731 41.4667 65.4531 41.8733 65.4264 42.3C65.4131 42.7133 65.3931 43.1 65.3664 43.46C65.3531 43.82 65.3464 44.0733 65.3464 44.22C65.3464 44.5267 65.3931 44.7467 65.4864 44.88C65.5797 45.0133 65.7531 45.08 66.0064 45.08C66.1797 45.08 66.3797 45.0533 66.6064 45L66.2864 46.92C66.0731 46.9867 65.8731 47.04 65.6864 47.08C65.5131 47.12 65.3331 47.14 65.1464 47.14C64.6531 47.14 64.2397 47.0067 63.9064 46.74C63.5731 46.46 63.3731 46.0667 63.3064 45.56C63.0397 46.08 62.6664 46.4933 62.1864 46.8C61.7064 47.0933 61.1664 47.24 60.5664 47.24ZM61.5264 45.4C61.9531 45.4 62.3131 45.2467 62.6064 44.94C62.9131 44.6333 63.0664 44.2467 63.0664 43.78C63.0664 43.38 62.9464 43.06 62.7064 42.82C62.4664 42.58 62.1331 42.46 61.7064 42.46C61.2664 42.46 60.9197 42.5933 60.6664 42.86C60.4131 43.1267 60.2864 43.4933 60.2864 43.96C60.2864 44.4 60.3931 44.7533 60.6064 45.02C60.8331 45.2733 61.1397 45.4 61.5264 45.4ZM70.0948 31.6C70.0548 32.0267 70.0215 32.4733 69.9948 32.94C69.9815 33.3933 69.9682 33.8933 69.9548 34.44C69.9548 34.9733 69.9482 35.5667 69.9348 36.22C69.9348 36.8733 69.9348 37.6 69.9348 38.4C70.3348 38 70.8082 37.6267 71.3548 37.28C71.9015 36.9333 72.5082 36.76 73.1748 36.76C73.4948 36.76 73.8082 36.82 74.1148 36.94C74.4348 37.06 74.7148 37.28 74.9548 37.6C75.1948 37.92 75.3882 38.3533 75.5348 38.9C75.6815 39.4467 75.7548 40.1467 75.7548 41C75.7548 42.04 75.6482 42.9533 75.4348 43.74C75.2348 44.5133 74.9415 45.16 74.5548 45.68C74.1815 46.2 73.7348 46.5933 73.2148 46.86C72.6948 47.1133 72.1148 47.24 71.4748 47.24C70.8882 47.24 70.3882 47.1267 69.9748 46.9C69.5615 46.66 69.1948 46.3467 68.8748 45.96L68.1348 47H67.0748C67.2348 46.3867 67.3348 45.4133 67.3748 44.08C67.4282 42.7467 67.4548 40.96 67.4548 38.72C67.4548 37.5867 67.4482 36.4533 67.4348 35.32C67.4215 34.1733 67.3948 33 67.3548 31.8L70.0948 31.6ZM71.8148 39.06C71.4282 39.06 71.0748 39.12 70.7548 39.24C70.4482 39.3467 70.1748 39.48 69.9348 39.64C69.9348 40.76 69.9348 41.74 69.9348 42.58C69.9348 43.42 69.9415 44.2067 69.9548 44.94C70.2882 45.54 70.7548 45.84 71.3548 45.84C71.9415 45.84 72.3882 45.4867 72.6948 44.78C73.0148 44.0733 73.1748 43.0267 73.1748 41.64C73.1748 41.0933 73.1415 40.6533 73.0748 40.32C73.0082 39.9867 72.9148 39.7267 72.7948 39.54C72.6748 39.3533 72.5282 39.2267 72.3548 39.16C72.1948 39.0933 72.0148 39.06 71.8148 39.06Z" fill="rgb(2, 84, 146)"/>
</svg>
