<svg width="25" height="25" viewBox="0 0 25 25" fill="none" xmlns="http://www.w3.org/2000/svg">
<path d="M25 12.5C25 5.59644 19.4036 0 12.5 0C5.59644 0 0 5.59644 0 12.5C0 19.4036 5.59644 25 12.5 25C19.4036 25 25 19.4036 25 12.5Z" fill="rgb(2, 84, 146)"/>
<path fill-rule="evenodd" clip-rule="evenodd" d="M15.2777 6.94458H9.72217C8.18805 6.94458 6.9444 8.18823 6.9444 9.72236V15.2779C6.9444 16.812 8.18805 18.0557 9.72217 18.0557H15.2777C16.8119 18.0557 18.0555 16.812 18.0555 15.2779V9.72236C18.0555 8.18823 16.8119 6.94458 15.2777 6.94458ZM12.74 11.0198C12.4337 10.9744 12.1208 11.0267 11.846 11.1694C11.5711 11.312 11.3482 11.5376 11.209 11.8142C11.0698 12.0908 11.0213 12.4043 11.0705 12.71C11.1197 13.0158 11.264 13.2982 11.483 13.5171C11.702 13.7361 11.9844 13.8805 12.2901 13.9297C12.5958 13.9788 12.9093 13.9304 13.1859 13.7912C13.4625 13.6519 13.6882 13.4291 13.8308 13.1542C13.9734 12.8793 14.0257 12.5665 13.9803 12.2602C13.934 11.9477 13.7884 11.6585 13.565 11.4351C13.3417 11.2118 13.0524 11.0662 12.74 11.0198ZM11.1551 9.83792C11.71 9.54998 12.3416 9.44436 12.96 9.53606C13.5908 9.6296 14.1748 9.92353 14.6257 10.3745C15.0766 10.8254 15.3705 11.4094 15.4641 12.0402C15.5558 12.6586 15.4502 13.2901 15.1622 13.845C14.8743 14.4 14.4187 14.85 13.8603 15.131C13.3019 15.4121 12.669 15.5099 12.0518 15.4106C11.4346 15.3113 10.8644 15.0199 10.4223 14.5778C9.98027 14.1357 9.68886 13.5656 9.58954 12.9483C9.49022 12.3311 9.58805 11.6983 9.86912 11.1398C10.1502 10.5814 10.6002 10.1259 11.1551 9.83792ZM15.5555 8.44458C15.0033 8.44458 14.5555 8.8923 14.5555 9.44458C14.5555 9.99686 15.0033 10.4446 15.5555 10.4446H15.5611C16.1134 10.4446 16.5611 9.99686 16.5611 9.44458C16.5611 8.8923 16.1134 8.44458 15.5611 8.44458H15.5555Z" fill="black"/>
</svg>
