<svg width="13" height="14" viewBox="0 0 13 14" fill="none" xmlns="http://www.w3.org/2000/svg">
<path d="M6.05362 6.26692C6.59035 6.26692 7.02545 5.81127 7.02545 5.24918C7.02545 4.6871 6.59035 4.23145 6.05362 4.23145C5.51689 4.23145 5.08179 4.6871 5.08179 5.24918C5.08179 5.81127 5.51689 6.26692 6.05362 6.26692Z" fill="rgb(2, 84, 146)"/>
<path d="M6.03634 0.589355C2.7026 0.589355 0 3.41967 0 6.91084C0 10.4019 2.7026 13.2325 6.03634 13.2325C9.37008 13.2325 12.0729 10.4019 12.0729 6.91084C12.0729 3.41967 9.37008 0.589355 6.03634 0.589355ZM6.02382 3.48373C6.02809 3.48373 6.03227 3.48352 6.03646 3.48331C6.04064 3.48352 6.04479 3.48373 6.04909 3.48373C7.06621 3.50054 7.89362 4.38089 7.89362 5.44629C7.89362 6.74888 6.56461 8.06786 6.03646 8.54047C6.00116 8.50886 5.96205 8.47325 5.92019 8.43422C5.91947 8.43355 5.91883 8.433 5.91822 8.43237C5.33372 7.88846 4.17934 6.66042 4.17934 5.44629C4.1793 4.38089 5.00679 3.50058 6.02382 3.48373ZM6.06266 10.3773C4.9494 10.3773 3.82234 10.0429 3.82234 9.40387C3.82234 8.95542 4.3773 8.65721 5.09279 8.51906C5.23118 8.66475 5.36218 8.79321 5.47711 8.90042C4.69776 8.99158 4.23986 9.24996 4.23986 9.40375C4.23986 9.59272 4.93185 9.93999 6.06266 9.93999C7.19346 9.93999 7.88557 9.59272 7.88557 9.40375C7.88557 9.2468 7.40836 8.98193 6.60071 8.89583C6.71666 8.78739 6.84869 8.65776 6.98814 8.51055C7.72512 8.6449 8.30306 8.94611 8.30306 9.40387C8.30306 10.0429 7.176 10.3773 6.06266 10.3773Z" fill="rgb(2, 84, 146)"/>
</svg>
