<?xml version="1.0" encoding="UTF-8"?>
<svg id="SVGDoc" width="52" height="44" xmlns="http://www.w3.org/2000/svg" version="1.1" xmlns:xlink="http://www.w3.org/1999/xlink" xmlns:avocode="https://avocode.com/" viewBox="0 0 52 44"><defs><linearGradient id="LinearGradient1014" gradientUnits="userSpaceOnUse" x1="25.730000000000018" y1="-0.00999999999999801" x2="25.730000000000018" y2="43.349999999999994"><stop stop-opacity="1" stop-color="#cc3333" offset="0"></stop><stop stop-opacity="1" stop-color="#990000" offset="1"></stop></linearGradient></defs><desc>Generated with Avocode.</desc><g><g><title>Path 46</title><path d="M34.2955,12.78207c0,-1.30835 -0.46674,-2.42862 -1.39838,-3.36121c-0.93176,-0.93088 -2.052,-1.39758 -3.36047,-1.39758c-1.58655,0 -2.8551,0.61597 -3.80634,1.84402v16.41641c0,1.18964 -0.37793,2.1514 -1.12994,2.88477c-0.75427,0.73346 -1.72565,1.10001 -2.91492,1.10001c-1.18915,0 -2.15088,-0.36655 -2.88525,-1.10001c-0.73389,-0.73337 -1.09955,-1.69513 -1.09955,-2.88477v-13.50165c0,-1.30835 -0.47638,-2.42862 -1.42755,-3.36121c-0.9516,-0.93088 -2.08203,-1.39758 -3.38995,-1.39758c-1.34906,0 -2.48914,0.45694 -3.4209,1.36838c-0.93127,0.91229 -1.39716,2.04312 -1.39716,3.39041v13.50165c0,1.18964 -0.36749,2.1514 -1.1004,2.88477c-0.73437,0.73346 -1.69519,1.10001 -2.88519,1.10001c-1.18921,0 -2.16193,-0.36655 -2.914,-1.10001c-0.75372,-0.73337 -1.13,-1.69513 -1.13,-2.88477v-13.50165c0,-3.60806 1.23907,-6.6413 3.71765,-9.1004c2.47717,-2.45816 5.5213,-3.68799 9.13,-3.68799c3.13116,0 5.90735,1.01163 8.32593,3.0336c2.37964,-2.02197 5.15497,-3.0336 8.32758,-3.0336c3.6073,0 6.64185,1.22983 9.10046,3.68799c2.45825,2.45911 3.68756,5.49234 3.68756,9.1004v17.72446c0,1.34726 0.46594,2.48828 1.39856,3.41998c0.92993,0.93134 2.07098,1.39807 3.41949,1.39807h0.23755c1.19049,0 2.16064,0.37616 2.91479,1.12991c0.75299,0.75336 1.13043,1.72479 1.13043,2.91486c0,1.18866 -0.37744,2.15009 -1.13043,2.88483c-0.75415,0.73303 -1.7243,1.10043 -2.91479,1.10043h-0.23755c-3.60852,0 -6.65271,-1.24005 -9.13,-3.71771c-2.47852,-2.479 -3.71722,-5.52234 -3.71722,-9.13037z" fill="url(#LinearGradient1014)"></path></g></g></svg>