<svg width="12" height="12" viewBox="0 0 12 12" fill="none" xmlns="http://www.w3.org/2000/svg">
<path d="M5.9999 0C2.68628 0 0 2.68635 0 5.99994C0 9.31345 2.68628 12 5.9999 12C9.31351 12 12 9.31345 12 5.99994C12 2.68635 9.31351 0 5.9999 0ZM6.00002 2.10746L9.5506 4.32148H2.44944L6.00002 2.10746ZM9.59484 7.857H9.59448C9.59448 8.21212 9.30667 8.49988 8.95159 8.49988H3.04845C2.69332 8.49988 2.40556 8.21208 2.40556 7.857V4.46236C2.40556 4.4248 2.4094 4.38828 2.41564 4.3524L5.80802 6.46774C5.81218 6.47034 5.81662 6.4721 5.8209 6.4745C5.82538 6.47698 5.82994 6.47938 5.8345 6.48166C5.85846 6.49402 5.88314 6.50398 5.90838 6.5105C5.91098 6.51122 5.91358 6.51154 5.91618 6.51215C5.94386 6.51866 5.9719 6.52275 5.9999 6.52275H6.0001C6.0003 6.52275 6.0005 6.52275 6.0005 6.52275C6.0285 6.52275 6.05654 6.51878 6.08422 6.51215C6.08682 6.5115 6.08942 6.51122 6.09202 6.5105C6.11722 6.50398 6.14182 6.49402 6.1659 6.48166C6.17046 6.47938 6.17502 6.47698 6.1795 6.4745C6.18374 6.4721 6.18822 6.47034 6.19238 6.46774L9.58476 4.3524C9.591 4.38828 9.59484 4.42472 9.59484 4.46236V7.857Z" fill="rgb(2, 84, 146)"/>
</svg>
