<svg width="12" height="12" viewBox="0 0 12 12" fill="none" xmlns="http://www.w3.org/2000/svg">
<path d="M6.00039 9.51209C5.74152 9.51209 5.53167 9.30223 5.53167 9.04337C5.53167 8.7845 5.74152 8.57465 6.00039 8.57465C6.25926 8.57465 6.46912 8.7845 6.46912 9.04337C6.46912 9.30223 6.25926 9.51209 6.00039 9.51209Z" fill="rgb(2, 84, 146)"/>
<path d="M4.6928 2.72992H7.30809C7.45469 2.72992 7.57397 2.84364 7.57397 2.98316V7.92684C7.57397 8.06648 7.45477 8.18008 7.30809 8.18008H4.6928C4.5462 8.18008 4.42691 8.06636 4.42691 7.92684V2.98316C4.42699 2.84352 4.5462 2.72992 4.6928 2.72992Z" fill="rgb(2, 84, 146)"/>
<path d="M6.00016 0C9.31374 0 12 2.68644 12 5.99988C12 9.31332 9.31374 12 6.00016 12C2.68658 12 0 9.31348 0 5.99988C0 2.68628 2.68658 0 6.00016 0ZM3.66582 8.96084C3.66582 9.41916 4.03743 9.7908 4.49579 9.7908H7.50437C7.96269 9.7908 8.33434 9.4192 8.33434 8.96084V3.01292C8.33434 2.5546 7.96273 2.18296 7.50437 2.18296H4.49579C4.03747 2.18296 3.66582 2.55456 3.66582 3.01292V8.96084Z" fill="rgb(2, 84, 146)"/>
</svg>
