<svg width="94" height="67" viewBox="0 0 94 67" fill="none" xmlns="http://www.w3.org/2000/svg">
<path d="M21.9699 22.3167L9.77832 22.1101L19.0285 1.51575" stroke="white" stroke-width="3" stroke-linejoin="round"/>
<path d="M21.386 22.0152H9.5719L18.8568 1" stroke="rgb(2, 84, 146)" stroke-width="3" stroke-linejoin="round"/>
<path d="M63.5311 22.1104H71.7966L80.0679 4.09515" stroke="white" stroke-width="3" stroke-linejoin="round"/>
<path d="M62.9152 22.0153H71.5899L79.896 3.75122" stroke="rgb(2, 84, 146)" stroke-width="3" stroke-linejoin="round"/>
<circle cx="30.4537" cy="22.7361" r="13.5123" fill="white"/>
<circle cx="54.5913" cy="22.7354" r="13.5123" fill="white"/>
<circle cx="30.2475" cy="22.942" r="10.6242" fill="black"/>
<circle cx="54.6937" cy="22.8379" r="10.7273" fill="black"/>
<path d="M41.329 31.5925L39.4711 27.8268L39.3281 27.6994C39.3281 27.6994 38.8643 23.8165 40.7365 22.7298C40.8794 24.5139 41.6006 27.2757 42.9341 29.5527C42.5737 30.4349 41.329 31.5925 41.329 31.5925Z" fill="black"/>
<path d="M42.5222 16.5469L43.141 15.4122L44.6882 18.7129L45.1008 18.3004L45.4103 22.8388C45.4103 22.8388 44.1436 22.6508 43.9373 22.6325C44.0405 18.8161 42.5222 16.5469 42.5222 16.5469Z" fill="black"/>
<circle cx="30.4537" cy="22.3227" r="13.5123" fill="rgb(2, 84, 146)"/>
<circle cx="54.5913" cy="22.3225" r="13.5123" fill="rgb(2, 84, 146)"/>
<circle cx="30.2475" cy="22.5287" r="10.6242" fill="black"/>
<circle cx="54.6937" cy="22.4244" r="10.7273" fill="black"/>
<path d="M41.329 31.179L39.4711 27.4133L39.3281 27.2859C39.3281 27.2859 38.8643 23.4029 40.7365 22.3163C40.8794 24.1004 41.6006 26.8622 42.9341 29.1392C42.5737 30.0214 41.329 31.179 41.329 31.179Z" fill="black"/>
<path d="M42.5222 16.1335L43.141 14.9989L44.6882 18.2996L45.1008 17.887L45.4103 22.4255C45.4103 22.4255 44.1436 22.2375 43.9373 22.2192C44.0405 18.4028 42.5222 16.1335 42.5222 16.1335Z" fill="black"/>
<path d="M41.6007 26.2428C41.394 25.4162 41.1874 20.8702 40.1542 18.8038L38.9144 25.8295L41.6007 26.2428Z" fill="black"/>
<path d="M1.85156 56.3992C1.85156 56.3914 1.84766 56.3836 1.83984 56.3758C1.83984 56.368 1.83984 56.3602 1.83984 56.3524C1.83984 56.2195 1.91016 56.1531 2.05078 56.1531C2.12109 56.1531 2.19922 56.1883 2.28516 56.2586C2.70703 56.657 3.17578 56.9734 3.69141 57.2078C4.20703 57.4422 4.76953 57.5594 5.37891 57.5594C5.54297 57.5594 5.73047 57.5438 5.94141 57.5125C6.15234 57.4734 6.35156 57.4149 6.53906 57.3367C6.72656 57.2508 6.88281 57.1414 7.00781 57.0086C7.14062 56.8758 7.20703 56.7078 7.20703 56.5047C7.20703 56.2781 7.15234 56.075 7.04297 55.8953C6.93359 55.7156 6.78906 55.5633 6.60938 55.4383C6.53906 55.3914 6.43359 55.3133 6.29297 55.2039C6.15234 55.0945 5.99219 54.9695 5.8125 54.8289C5.63281 54.6883 5.44531 54.5399 5.25 54.3836C5.05469 54.2195 4.86719 54.0672 4.6875 53.9266C4.51562 53.7781 4.35938 53.6453 4.21875 53.5281C4.07812 53.4109 3.97266 53.3211 3.90234 53.2586C3.44141 52.9149 3.07422 52.5672 2.80078 52.2156C2.53516 51.8641 2.33203 51.4969 2.19141 51.1141C2.05078 50.7313 1.96094 50.3367 1.92188 49.9305C1.88281 49.5164 1.86328 49.0789 1.86328 48.618C1.86328 47.9305 2.02734 47.2781 2.35547 46.6609C2.68359 46.0438 3.14453 45.5086 3.73828 45.0555C4.33984 44.5945 5.05859 44.2313 5.89453 43.9656C6.73047 43.6922 7.66016 43.5555 8.68359 43.5555C8.80859 43.5555 8.99609 43.5711 9.24609 43.6024C9.49609 43.6258 9.76953 43.6688 10.0664 43.7313C10.3711 43.7938 10.6797 43.8797 10.9922 43.9891C11.3047 44.0984 11.5898 44.2391 11.8477 44.4109C11.9336 44.4734 12 44.5359 12.0469 44.5984C12.1016 44.6609 12.1367 44.7586 12.1523 44.8914C12.1914 45.5242 12.2227 46.1492 12.2461 46.7664C12.2695 47.3758 12.3008 48.0242 12.3398 48.7117C12.3398 48.8445 12.3125 48.9344 12.2578 48.9813C12.2031 49.0203 12.1328 49.0399 12.0469 49.0399C11.9609 49.0399 11.8945 49.0164 11.8477 48.9695C11.6211 48.743 11.3867 48.5203 11.1445 48.3016C10.9023 48.0828 10.6484 47.8914 10.3828 47.7274C10.1172 47.5555 9.83203 47.4188 9.52734 47.3172C9.23047 47.2156 8.90625 47.1649 8.55469 47.1649C8.34375 47.1649 8.13281 47.1844 7.92188 47.2234C7.71094 47.2547 7.51953 47.3172 7.34766 47.4109C7.17578 47.5047 7.03516 47.6336 6.92578 47.7977C6.82422 47.9617 6.77344 48.1688 6.77344 48.4188C6.77344 48.6844 6.80469 48.9149 6.86719 49.1102C6.9375 49.3055 7.10547 49.4891 7.37109 49.6609L10.1836 51.5711C10.6992 51.9383 11.1172 52.3055 11.4375 52.6727C11.7578 53.032 12.0078 53.3914 12.1875 53.7508C12.3672 54.1102 12.4883 54.4656 12.5508 54.8172C12.6211 55.1609 12.6562 55.5008 12.6562 55.8367C12.6562 56.3836 12.5664 56.8992 12.3867 57.3836C12.207 57.868 11.9609 58.3172 11.6484 58.7313C11.3359 59.1375 10.9688 59.5047 10.5469 59.8328C10.1328 60.1531 9.6875 60.4305 9.21094 60.6649C8.73438 60.8914 8.23828 61.0633 7.72266 61.1805C7.21484 61.3055 6.71484 61.368 6.22266 61.368C5.83984 61.368 5.46094 61.3602 5.08594 61.3445C4.71875 61.3367 4.35938 61.3055 4.00781 61.2508C3.65625 61.2039 3.31641 61.1258 2.98828 61.0164C2.66016 60.9149 2.34766 60.7703 2.05078 60.5828L1.85156 56.3992ZM18.1711 52.5789C18.1242 53.3289 18.0813 53.9383 18.0422 54.407C18.0109 54.8758 17.9836 55.2586 17.9602 55.5555C17.9367 55.8445 17.9172 56.075 17.9016 56.2469C17.8859 56.4109 17.8742 56.5672 17.8664 56.7156C18.0461 57.1844 18.3117 57.5672 18.6633 57.8641C19.0148 58.1531 19.4367 58.2977 19.9289 58.2977C20.3586 58.2977 20.7336 58.1649 21.0539 57.8992C21.382 57.6258 21.6516 57.2742 21.8625 56.8445C22.0813 56.4149 22.2453 55.9344 22.3547 55.4031C22.4641 54.8719 22.5188 54.3445 22.5188 53.8211C22.5188 53.3914 22.4797 52.993 22.4016 52.6258C22.3313 52.2586 22.2219 51.9422 22.0734 51.6766C21.925 51.4031 21.7375 51.1922 21.5109 51.0438C21.2922 50.8875 21.0305 50.8094 20.7258 50.8094C20.4758 50.8094 20.2258 50.8602 19.9758 50.9617C19.7336 51.0555 19.4992 51.1805 19.2727 51.3367C19.0461 51.4852 18.8391 51.657 18.6516 51.8524C18.4719 52.0399 18.3234 52.2234 18.2063 52.4031L18.1711 52.5789ZM18.4055 49.1453C19.0617 48.7 19.7492 48.3445 20.468 48.0789C21.1867 47.8133 21.9367 47.6805 22.718 47.6805C23.4523 47.6805 24.0852 47.8328 24.6164 48.1375C25.1555 48.4344 25.6008 48.8406 25.9523 49.3563C26.3039 49.8641 26.5617 50.45 26.7258 51.1141C26.8977 51.7781 26.9836 52.4734 26.9836 53.2C26.9836 53.8328 26.9211 54.4734 26.7961 55.1219C26.6711 55.7703 26.4875 56.3992 26.2453 57.0086C26.0031 57.6102 25.7023 58.1766 25.343 58.7078C24.9836 59.2391 24.5695 59.7039 24.1008 60.1024C23.6398 60.493 23.1242 60.8016 22.5539 61.0281C21.9836 61.2547 21.3664 61.368 20.7023 61.368C20.1164 61.368 19.5539 61.2508 19.0148 61.0164C18.4836 60.782 17.9836 60.4774 17.5148 60.1024C17.5148 60.1414 17.5031 60.2859 17.4797 60.5359C17.4641 60.7781 17.4406 61.075 17.4094 61.4266C17.3781 61.7781 17.343 62.1531 17.3039 62.5516C17.2648 62.9578 17.2297 63.3367 17.1984 63.6883C17.1672 64.0399 17.1398 64.3367 17.1164 64.5789C17.1008 64.8289 17.093 64.9734 17.093 65.0125C17.093 65.075 17.093 65.1258 17.093 65.1649C17.1008 65.2117 17.1047 65.2547 17.1047 65.2938C17.1047 65.3563 17.0734 65.407 17.0109 65.4461C16.9563 65.493 16.8273 65.5438 16.6242 65.5984L13.5422 66.3836C13.4563 66.407 13.343 66.4422 13.2023 66.4891C13.0617 66.5438 12.925 66.5711 12.7922 66.5711C12.6828 66.5711 12.5852 66.5438 12.4992 66.4891C12.4211 66.4344 12.382 66.3328 12.382 66.1844L13.8117 49.0281C13.8352 48.7703 13.8625 48.5945 13.8938 48.5008C13.9328 48.3992 14.0227 48.3328 14.1633 48.3016C14.8742 48.1609 15.6047 48.0203 16.3547 47.8797C17.1047 47.7313 17.8352 47.5438 18.5461 47.3172C18.6086 47.3172 18.6438 47.3289 18.6516 47.3524C18.6672 47.368 18.675 47.3953 18.675 47.4344C18.675 47.45 18.6711 47.4734 18.6633 47.5047C18.6633 47.5359 18.6516 47.6063 18.6281 47.7156C18.6125 47.825 18.5852 47.993 18.5461 48.2195C18.5148 48.4383 18.468 48.7469 18.4055 49.1453ZM34.2563 47.6805C34.9984 47.6805 35.6703 47.8211 36.2719 48.1024C36.8813 48.3758 37.4008 48.7352 37.8305 49.1805C38.268 49.618 38.6039 50.1102 38.8383 50.657C39.0727 51.2039 39.1898 51.7508 39.1898 52.2977C39.1898 52.782 39.0414 53.2703 38.7445 53.7625C38.4477 54.2469 38.0297 54.6844 37.4906 55.075C36.9594 55.4656 36.3188 55.782 35.5688 56.0242C34.8188 56.2664 33.9945 56.3875 33.0961 56.3875C32.6273 56.3875 32.1352 56.3406 31.6195 56.2469C31.6508 56.5828 31.7484 56.8719 31.9125 57.1141C32.0766 57.3563 32.2836 57.5555 32.5336 57.7117C32.7836 57.868 33.0648 57.9852 33.3773 58.0633C33.6977 58.1336 34.0258 58.1688 34.3617 58.1688C34.7367 58.1688 35.0961 58.1375 35.4398 58.075C35.7914 58.0047 36.1273 57.9149 36.4477 57.8055C36.768 57.6961 37.0766 57.575 37.3734 57.4422C37.6703 57.3094 37.9516 57.1766 38.2172 57.0438C38.2875 57.0281 38.3461 57.0164 38.393 57.0086C38.4477 56.993 38.4984 56.9852 38.5453 56.9852C38.5453 56.9852 38.5414 57.0477 38.5336 57.1727C38.5336 57.2977 38.5336 57.4734 38.5336 57.7C38.5336 57.9266 38.5297 58.2 38.5219 58.5203C38.5219 58.8406 38.518 59.1961 38.5102 59.5867C38.5336 59.6258 38.5492 59.6649 38.557 59.7039C38.5648 59.743 38.5688 59.7742 38.5688 59.7977C38.5688 59.8914 38.4828 59.993 38.3109 60.1024C38.1391 60.2117 37.9125 60.325 37.6313 60.4422C37.3578 60.5594 37.0414 60.6727 36.682 60.782C36.3305 60.8914 35.9711 60.9891 35.6039 61.075C35.2367 61.1688 34.8813 61.2391 34.5375 61.2859C34.1938 61.3406 33.893 61.368 33.6352 61.368C32.7914 61.368 31.9711 61.2195 31.1742 60.9227C30.3852 60.6336 29.682 60.2156 29.0648 59.6688C28.4555 59.1219 27.9672 58.4578 27.6 57.6766C27.2328 56.8953 27.0492 56.0164 27.0492 55.0399C27.0492 54.0164 27.225 53.0594 27.5766 52.1688C27.9281 51.2703 28.4203 50.4891 29.0531 49.825C29.6938 49.1609 30.4555 48.6375 31.3383 48.2547C32.2211 47.8719 33.1938 47.6805 34.2563 47.6805ZM34.1156 50.7977C33.7953 50.7977 33.4984 50.868 33.225 51.0086C32.9594 51.1414 32.7133 51.3367 32.4867 51.5945C32.268 51.8445 32.0766 52.1492 31.9125 52.5086C31.7484 52.8602 31.6156 53.2508 31.5141 53.6805C32.3188 53.5399 32.9867 53.3914 33.518 53.2352C34.0492 53.0789 34.475 52.9227 34.7953 52.7664C35.1156 52.6024 35.3422 52.4422 35.475 52.2859C35.6078 52.1219 35.6742 51.9656 35.6742 51.8172C35.6742 51.6766 35.6195 51.5438 35.5102 51.4188C35.4086 51.2938 35.2797 51.1844 35.1234 51.0906C34.9672 50.9969 34.7953 50.9266 34.6078 50.8797C34.4281 50.825 34.2641 50.7977 34.1156 50.7977ZM39.2203 55.0399C39.2203 54.0164 39.4078 53.0594 39.7828 52.1688C40.1656 51.2703 40.6891 50.4891 41.3531 49.825C42.025 49.1609 42.8141 48.6375 43.7203 48.2547C44.6344 47.8719 45.6266 47.6805 46.6969 47.6805C47.4234 47.6805 48.0445 47.7391 48.5602 47.8563C49.0758 47.9734 49.4977 48.1063 49.8258 48.2547C50.1539 48.3953 50.3922 48.5281 50.5406 48.6531C50.6969 48.7703 50.775 48.8328 50.775 48.8406C50.775 48.8875 50.7555 49.0203 50.7164 49.2391C50.6852 49.45 50.6461 49.7 50.5992 49.9891C50.5602 50.2703 50.5211 50.5633 50.482 50.868C50.4508 51.1649 50.4352 51.4227 50.4352 51.6414C50.4352 51.6805 50.4234 51.7234 50.4 51.7703C50.3766 51.8172 50.3141 51.8406 50.2125 51.8406C50.1188 51.8406 49.982 51.8094 49.8023 51.7469C49.6227 51.6766 49.4 51.6024 49.1344 51.5242C48.8766 51.4461 48.5758 51.3758 48.232 51.3133C47.8961 51.243 47.5211 51.2078 47.107 51.2078C46.5914 51.2078 46.1266 51.3016 45.7125 51.4891C45.2984 51.6688 44.943 51.9227 44.6461 52.2508C44.3492 52.5711 44.1188 52.9539 43.9547 53.3992C43.7984 53.8445 43.7203 54.325 43.7203 54.8406C43.7203 55.3797 43.8023 55.8406 43.9664 56.2234C44.1383 56.5984 44.3648 56.907 44.6461 57.1492C44.9273 57.3836 45.2516 57.5555 45.6188 57.6649C45.9859 57.7742 46.3727 57.8289 46.7789 57.8289C47.2477 57.8289 47.7203 57.7664 48.1969 57.6414C48.6734 57.5086 49.1227 57.325 49.5445 57.0906C49.5602 57.0828 49.5914 57.0789 49.6383 57.0789C49.6773 57.0789 49.7047 57.0984 49.7203 57.1375C49.7438 57.1766 49.7555 57.2508 49.7555 57.3602C49.7555 57.6102 49.7555 57.9149 49.7555 58.2742C49.7555 58.6258 49.7516 58.9656 49.7438 59.2938C49.7438 59.6141 49.7398 59.8875 49.732 60.1141C49.7242 60.3406 49.7164 60.4539 49.7086 60.4539C49.4273 60.6414 49.1227 60.7938 48.7945 60.9109C48.4664 61.0281 48.1266 61.1219 47.775 61.1922C47.4313 61.2625 47.0836 61.3094 46.732 61.3328C46.3805 61.3563 46.0406 61.368 45.7125 61.368C44.7984 61.368 43.9469 61.2156 43.1578 60.9109C42.3688 60.6063 41.6813 60.1766 41.0953 59.6219C40.5172 59.0672 40.0602 58.4031 39.7242 57.6297C39.3883 56.8484 39.2203 55.9852 39.2203 55.0399ZM50.6648 57.5242C50.6648 57.5164 50.6609 57.5125 50.6531 57.5125C50.6531 57.5047 50.6531 57.4969 50.6531 57.4891C50.6531 57.3875 50.7078 57.3367 50.8172 57.3367C50.8875 57.3367 50.95 57.3641 51.0047 57.4188C51.3172 57.7156 51.6727 57.9578 52.0711 58.1453C52.4773 58.3328 52.9148 58.4266 53.3836 58.4266C53.5086 58.4266 53.6531 58.4149 53.8172 58.3914C53.9813 58.3602 54.1375 58.3133 54.2859 58.2508C54.4344 58.1883 54.5555 58.1063 54.6492 58.0047C54.7508 57.8953 54.8016 57.7625 54.8016 57.6063C54.8016 57.4344 54.7586 57.2781 54.6727 57.1375C54.5867 56.9891 54.4734 56.868 54.3328 56.7742C54.2547 56.7195 54.118 56.6258 53.9227 56.493C53.7273 56.3524 53.5164 56.2039 53.2898 56.0477C53.0711 55.8914 52.8602 55.743 52.657 55.6024C52.4617 55.4617 52.325 55.3602 52.2469 55.2977C51.8953 55.032 51.6141 54.7625 51.4031 54.4891C51.2 54.2156 51.0438 53.9344 50.9344 53.6453C50.825 53.3484 50.7547 53.0399 50.7234 52.7195C50.6922 52.3992 50.6766 52.0594 50.6766 51.7C50.6766 51.1531 50.8211 50.6375 51.1102 50.1531C51.3992 49.6688 51.7781 49.243 52.2469 48.8758C52.7234 48.5086 53.2625 48.2195 53.8641 48.0086C54.4656 47.7899 55.0789 47.6805 55.7039 47.6805C56.2195 47.6805 56.7273 47.7586 57.2273 47.9149C57.7273 48.0711 58.1922 48.3367 58.6219 48.7117C58.6609 49.2039 58.6883 49.6883 58.7039 50.1649C58.7195 50.6414 58.743 51.1414 58.7742 51.6649C58.7742 51.7664 58.7508 51.8367 58.7039 51.8758C58.657 51.907 58.6023 51.9227 58.5398 51.9227C58.4852 51.9227 58.4383 51.9031 58.3992 51.8641C58.2195 51.6922 58.0359 51.5242 57.8484 51.3602C57.6609 51.1883 57.4617 51.0399 57.2508 50.9149C57.0477 50.782 56.8289 50.6766 56.5945 50.5984C56.3602 50.5125 56.1102 50.4695 55.8445 50.4695C55.6805 50.4695 55.5164 50.4852 55.3523 50.5164C55.1883 50.5399 55.0398 50.5906 54.907 50.6688C54.7742 50.7391 54.6648 50.8367 54.5789 50.9617C54.5008 51.0867 54.4617 51.2469 54.4617 51.4422C54.4617 51.6688 54.4891 51.8641 54.5438 52.0281C54.5984 52.1922 54.7273 52.3524 54.9305 52.5086L57.1102 53.9852C57.5086 54.2586 57.8289 54.5281 58.0711 54.7938C58.3211 55.0516 58.5164 55.3094 58.657 55.5672C58.7977 55.825 58.8914 56.0828 58.9383 56.3406C58.993 56.5906 59.0203 56.8406 59.0203 57.0906C59.0203 57.7938 58.8563 58.4149 58.5281 58.9539C58.2078 59.4852 57.7898 59.9305 57.2742 60.2899C56.7586 60.6414 56.1727 60.907 55.5164 61.0867C54.868 61.2742 54.2156 61.368 53.5594 61.368C53.0594 61.368 52.575 61.3133 52.1063 61.2039C51.6453 61.1024 51.2156 60.9422 50.8172 60.7234L50.6648 57.5242Z" fill="white"/>
<path d="M69.4056 60.7586H59.8056C59.8216 59.9906 59.8376 59.3186 59.8536 58.7426C59.8856 58.1506 59.9096 57.5426 59.9256 56.9186C59.9416 56.2786 59.9576 55.5506 59.9736 54.7346C59.9896 53.9186 59.9976 52.8946 59.9976 51.6626C59.9976 50.4306 59.9896 49.2066 59.9736 47.9906C59.9576 46.7586 59.9256 45.4946 59.8776 44.1986L63.3096 43.9586C63.2616 44.4706 63.2216 44.9986 63.1896 45.5426C63.1736 46.0706 63.1576 46.6626 63.1416 47.3186C63.1416 47.9586 63.1336 48.6786 63.1176 49.4786C63.1176 50.2786 63.1176 51.1906 63.1176 52.2146C63.1176 53.5266 63.1176 54.6706 63.1176 55.6466C63.1176 56.6226 63.1256 57.5426 63.1416 58.4066H69.4056V60.7586ZM72.6797 61.0466C71.6717 61.0466 70.8557 60.7026 70.2317 60.0146C69.6237 59.3266 69.3197 58.4306 69.3197 57.3266C69.3197 56.1746 69.6557 55.2546 70.3277 54.5666C70.9997 53.8786 71.8957 53.5346 73.0157 53.5346C73.4797 53.5346 73.9437 53.5986 74.4077 53.7266C74.8717 53.8546 75.2877 54.0386 75.6557 54.2786V52.9346C75.6557 52.1826 75.5117 51.6546 75.2237 51.3506C74.9357 51.0466 74.4397 50.8946 73.7357 50.8946C73.2557 50.8946 72.7437 50.9586 72.1997 51.0866C71.6717 51.1986 71.2477 51.3426 70.9277 51.5186L70.1837 49.2146C70.4237 49.1186 70.7117 49.0226 71.0477 48.9266C71.3837 48.8306 71.7437 48.7506 72.1277 48.6866C72.5117 48.6226 72.9037 48.5746 73.3037 48.5426C73.7037 48.4946 74.0717 48.4706 74.4077 48.4706C77.2237 48.4706 78.6317 49.8466 78.6317 52.5986C78.6317 52.8386 78.6157 53.1906 78.5837 53.6546C78.5677 54.1186 78.5437 54.6066 78.5117 55.1186C78.4957 55.6146 78.4717 56.0786 78.4397 56.5106C78.4237 56.9426 78.4157 57.2466 78.4157 57.4226C78.4157 57.7906 78.4717 58.0546 78.5837 58.2146C78.6957 58.3746 78.9037 58.4546 79.2077 58.4546C79.4157 58.4546 79.6557 58.4226 79.9277 58.3586L79.5437 60.6626C79.2877 60.7426 79.0477 60.8066 78.8237 60.8546C78.6157 60.9026 78.3997 60.9266 78.1757 60.9266C77.5837 60.9266 77.0877 60.7666 76.6877 60.4466C76.2877 60.1106 76.0477 59.6386 75.9677 59.0306C75.6477 59.6546 75.1997 60.1506 74.6237 60.5186C74.0477 60.8706 73.3997 61.0466 72.6797 61.0466ZM73.8317 58.8386C74.3437 58.8386 74.7757 58.6546 75.1277 58.2866C75.4957 57.9186 75.6797 57.4546 75.6797 56.8946C75.6797 56.4146 75.5357 56.0306 75.2477 55.7426C74.9597 55.4546 74.5597 55.3106 74.0477 55.3106C73.5197 55.3106 73.1037 55.4706 72.7997 55.7906C72.4957 56.1106 72.3437 56.5506 72.3437 57.1106C72.3437 57.6386 72.4717 58.0626 72.7277 58.3826C72.9997 58.6866 73.3677 58.8386 73.8317 58.8386ZM84.1138 42.2786C84.0658 42.7906 84.0258 43.3266 83.9938 43.8866C83.9778 44.4306 83.9618 45.0306 83.9458 45.6866C83.9458 46.3266 83.9378 47.0386 83.9218 47.8226C83.9218 48.6066 83.9218 49.4786 83.9218 50.4386C84.4018 49.9586 84.9698 49.5106 85.6258 49.0946C86.2818 48.6786 87.0098 48.4706 87.8098 48.4706C88.1938 48.4706 88.5698 48.5426 88.9378 48.6866C89.3218 48.8306 89.6578 49.0946 89.9458 49.4786C90.2338 49.8626 90.4658 50.3826 90.6418 51.0386C90.8178 51.6946 90.9058 52.5346 90.9058 53.5586C90.9058 54.8066 90.7778 55.9026 90.5218 56.8466C90.2818 57.7746 89.9298 58.5506 89.4658 59.1746C89.0178 59.7986 88.4818 60.2706 87.8578 60.5906C87.2338 60.8946 86.5378 61.0466 85.7698 61.0466C85.0658 61.0466 84.4658 60.9106 83.9698 60.6386C83.4738 60.3506 83.0338 59.9746 82.6498 59.5106L81.7618 60.7586H80.4898C80.6818 60.0226 80.8018 58.8546 80.8498 57.2546C80.9138 55.6546 80.9458 53.5106 80.9458 50.8226C80.9458 49.4626 80.9378 48.1026 80.9218 46.7426C80.9058 45.3666 80.8738 43.9586 80.8258 42.5186L84.1138 42.2786ZM86.1778 51.2306C85.7138 51.2306 85.2898 51.3026 84.9058 51.4466C84.5378 51.5746 84.2098 51.7346 83.9218 51.9266C83.9218 53.2706 83.9218 54.4466 83.9218 55.4546C83.9218 56.4626 83.9298 57.4066 83.9458 58.2866C84.3458 59.0066 84.9058 59.3666 85.6258 59.3666C86.3298 59.3666 86.8658 58.9426 87.2338 58.0946C87.6178 57.2466 87.8098 55.9906 87.8098 54.3266C87.8098 53.6706 87.7698 53.1426 87.6898 52.7426C87.6098 52.3426 87.4978 52.0306 87.3538 51.8066C87.2098 51.5826 87.0338 51.4306 86.8258 51.3506C86.6338 51.2706 86.4178 51.2306 86.1778 51.2306Z" fill="rgb(2, 84, 146)"/>
</svg>
