<svg width="24" height="18" viewBox="0 0 24 18" fill="none" xmlns="http://www.w3.org/2000/svg">
<path d="M17.253 3.05235L17.2533 3.05235C18.1074 3.05558 18.9288 3.38063 19.5539 3.96267C20.163 4.52989 20.5419 5.30054 20.6201 6.12767C21.5751 6.47759 22.3804 7.14726 22.898 8.02448C23.4266 8.92035 23.6211 9.9744 23.4469 10.9999C23.2728 12.0254 22.7413 12.9562 21.9466 13.6274C21.152 14.2986 20.1454 14.6668 19.1052 14.6669H17.5192C17.422 14.6669 17.3289 14.6283 17.2602 14.5596C17.1915 14.491 17.1529 14.3978 17.1529 14.3007C17.1529 14.2035 17.1915 14.1104 17.2602 14.0417C17.3289 13.973 17.422 13.9344 17.5192 13.9344H19.1039C19.9851 13.9344 20.8368 13.6174 21.5037 13.0415C22.1706 12.4655 22.6082 11.6689 22.7364 10.7971C22.8647 9.92534 22.6752 9.03649 22.2024 8.29284C21.7297 7.54922 21.0053 7.0004 20.1615 6.74656C20.1615 6.74656 20.1615 6.74655 20.1615 6.74655L20.1903 6.65078C20.136 6.63448 20.0883 6.60127 20.0541 6.55598C20.02 6.51069 20.0013 6.4557 20.0006 6.399L17.253 3.05235ZM17.253 3.05235C16.867 3.05178 16.484 3.1179 16.1207 3.24761C15.3094 2.32134 14.2641 1.62936 13.0936 1.24443C11.901 0.852252 10.6239 0.793747 9.4004 1.07525C8.17695 1.35676 7.05381 1.96755 6.15254 2.84151C5.26585 3.70134 4.62716 4.78367 4.30297 5.97471C3.26658 6.2166 2.35204 6.82588 1.72955 7.69078C1.09514 8.57223 0.808798 9.65701 0.92552 10.7367C1.04224 11.8164 1.5538 12.815 2.36192 13.5405C3.17005 14.266 4.21774 14.6673 5.30375 14.6674H6.93332C7.03046 14.6674 7.12362 14.6288 7.19231 14.5601C7.26099 14.4914 7.29958 14.3982 7.29958 14.3011C7.29958 14.2039 7.261 14.1108 7.19231 14.0421C7.12362 13.9734 7.03046 13.9348 6.93332 13.9348H5.30376H5.30374M17.253 3.05235L5.30374 13.9348M5.30374 13.9348C4.38546 13.935 3.50047 13.591 2.82333 12.9707M5.30374 13.9348L2.82333 12.9707M2.82333 12.9707C2.1462 12.3505 1.7261 11.499 1.6459 10.5842M2.82333 12.9707L1.6459 10.5842M1.6459 10.5842C1.56571 9.66946 1.83124 8.75785 2.39012 8.02924M1.6459 10.5842L2.39012 8.02924M2.39012 8.02924C2.94901 7.30062 3.76065 6.80791 4.66495 6.64829M2.39012 8.02924L4.66495 6.64829M4.66495 6.64829C4.73551 6.63586 4.80087 6.603 4.85295 6.55379M4.66495 6.64829L4.85295 6.55379M4.85295 6.55379C4.90502 6.50459 4.94151 6.44119 4.95792 6.37146L4.85295 6.55379ZM19.1107 4.55166C19.6059 5.04077 19.8894 5.70453 19.9006 6.40041L16.1625 4.01941C16.1625 4.01941 16.1625 4.01941 16.1625 4.01941C16.5048 3.864 16.8765 3.78388 17.2525 3.78445C17.9484 3.7871 18.6156 4.06255 19.1107 4.55166Z" fill="black" stroke="black" stroke-width="0.2"/>
<path d="M12.3536 7.64645C12.1583 7.45118 11.8417 7.45118 11.6464 7.64645L8.46447 10.8284C8.2692 11.0237 8.2692 11.3403 8.46447 11.5355C8.65973 11.7308 8.97631 11.7308 9.17157 11.5355L12 8.70711L14.8284 11.5355C15.0237 11.7308 15.3403 11.7308 15.5355 11.5355C15.7308 11.3403 15.7308 11.0237 15.5355 10.8284L12.3536 7.64645ZM12.5 18V8H11.5V18H12.5Z" fill="black"/>
</svg>
